<svg width="360" height="210" xmlns="http://www.w3.org/2000/svg">
<style>
svg {
  font-family: -apple-system, BlinkMacSystemFont, Segoe UI, Helvetica, Arial, sans-serif, Apple Color Emoji, Segoe UI Emoji;
  font-size: 14px;
  line-height: 21px;
}
#background {
  width: calc(100% - 10px);
  height: calc(100% - 10px);
  fill: #00000000;
  stroke: #8B8B8B22;
  stroke-width: 1px;
  rx: 6px;
  ry: 6px;
}
foreignObject {
  width: calc(100% - 42px);
}
.octicon {
  margin-right: 1ch;
  vertical-align: top;
}
</style>
<rect x="5" y="5" id="background" />
<foreignObject x="21" y="17" width="318" height="176">
<style>
foreignObject { height: calc(100% - 34px); }
h2 {
  margin: 0 0 0.75em;
  line-height: 24px;
  font-size: 16px;
  font-weight: 600;
  color: #ffffff;
}
ul {
  list-style: none;
  padding-left: 0;
  margin: 0;
}
li {
  display: inline-flex;
  font-size: 12px;
  margin-right: 2ch;
  align-items: center;
  flex-wrap: nowrap;
}
div.ellipsis {
  height: 100%;
  overflow: hidden;
  text-overflow: ellipsis;
}
.progress {
  display: flex;
  height: 8px;
  overflow: hidden;
  background-color: #00000000;
  border-radius: 6px;
  outline: 1px solid transparent;
  margin-bottom: 1em;
}
.lang {
  font-weight: 600;
  margin-right: 4px;
  color: rgb(135, 135, 135);
}
.percent { color: rgb(150,150,150); }
</style>
<div xmlns="http://www.w3.org/1999/xhtml" class="ellipsis">
<h2>Most Used Languages</h2>
<div><span class="progress"><span style="background-color:#8b8b8b;width:44.317%;margin-right:0.443%"></span><span style="background-color:#7e7eff;width:30.784%;margin-right:0.308%"></span><span style="background-color:#663399;width:5.435%;margin-right:0.054%"></span><span style="background-color:#f1e05a;width:5.235%;margin-right:0.052%"></span><span style="background-color:#3178c6;width:4.279%;margin-right:0.043%"></span><span style="background-color:#89e051;width:2.598%;margin-right:0.026%"></span><span style="background-color:#3572A5;width:2.546%;margin-right:0.025%"></span><span style="background-color:#dea584;width:2.338%;margin-right:0.023%"></span><span style="background-color:#8b8b8b;width:1.650%;margin-right:0.017%"></span><span style="background-color:#e34c26;width:0.818%;margin-right:0.008%"></span></span></div>
<ul>
<li>
<svg xmlns="http://www.w3.org/2000/svg" class="octicon" style="fill:#8b8b8b" viewBox="0 0 16 16" width="16" height="16"><path fill-rule="evenodd" d="M8 4a4 4 0 100 8 4 4 0 000-8z"></path></svg>
<span class="lang">Luau</span>
<span class="percent">44.32%</span>
</li>
<li>
<svg xmlns="http://www.w3.org/2000/svg" class="octicon" style="fill:#7e7eff" viewBox="0 0 16 16" width="16" height="16"><path fill-rule="evenodd" d="M8 4a4 4 0 100 8 4 4 0 000-8z"></path></svg>
<span class="lang">Nix</span>
<span class="percent">30.78%</span>
</li>
<li>
<svg xmlns="http://www.w3.org/2000/svg" class="octicon" style="fill:#663399" viewBox="0 0 16 16" width="16" height="16"><path fill-rule="evenodd" d="M8 4a4 4 0 100 8 4 4 0 000-8z"></path></svg>
<span class="lang">CSS</span>
<span class="percent">5.44%</span>
</li>
<li>
<svg xmlns="http://www.w3.org/2000/svg" class="octicon" style="fill:#f1e05a" viewBox="0 0 16 16" width="16" height="16"><path fill-rule="evenodd" d="M8 4a4 4 0 100 8 4 4 0 000-8z"></path></svg>
<span class="lang">JavaScript</span>
<span class="percent">5.24%</span>
</li>
<li>
<svg xmlns="http://www.w3.org/2000/svg" class="octicon" style="fill:#3178c6" viewBox="0 0 16 16" width="16" height="16"><path fill-rule="evenodd" d="M8 4a4 4 0 100 8 4 4 0 000-8z"></path></svg>
<span class="lang">TypeScript</span>
<span class="percent">4.28%</span>
</li>
<li>
<svg xmlns="http://www.w3.org/2000/svg" class="octicon" style="fill:#89e051" viewBox="0 0 16 16" width="16" height="16"><path fill-rule="evenodd" d="M8 4a4 4 0 100 8 4 4 0 000-8z"></path></svg>
<span class="lang">Shell</span>
<span class="percent">2.60%</span>
</li>
<li>
<svg xmlns="http://www.w3.org/2000/svg" class="octicon" style="fill:#3572A5" viewBox="0 0 16 16" width="16" height="16"><path fill-rule="evenodd" d="M8 4a4 4 0 100 8 4 4 0 000-8z"></path></svg>
<span class="lang">Python</span>
<span class="percent">2.55%</span>
</li>
<li>
<svg xmlns="http://www.w3.org/2000/svg" class="octicon" style="fill:#dea584" viewBox="0 0 16 16" width="16" height="16"><path fill-rule="evenodd" d="M8 4a4 4 0 100 8 4 4 0 000-8z"></path></svg>
<span class="lang">Rust</span>
<span class="percent">2.34%</span>
</li>
<li>
<svg xmlns="http://www.w3.org/2000/svg" class="octicon" style="fill:#8b8b8b" viewBox="0 0 16 16" width="16" height="16"><path fill-rule="evenodd" d="M8 4a4 4 0 100 8 4 4 0 000-8z"></path></svg>
<span class="lang">GLSL</span>
<span class="percent">1.65%</span>
</li>
<li>
<svg xmlns="http://www.w3.org/2000/svg" class="octicon" style="fill:#e34c26" viewBox="0 0 16 16" width="16" height="16"><path fill-rule="evenodd" d="M8 4a4 4 0 100 8 4 4 0 000-8z"></path></svg>
<span class="lang">HTML</span>
<span class="percent">0.82%</span>
</li>
</ul>
</div>
</foreignObject>
</svg>