<svg width="360" height="210" xmlns="http://www.w3.org/2000/svg">
<style>
svg {
  font-family: -apple-system, BlinkMacSystemFont, Segoe UI, Helvetica, Arial, sans-serif, Apple Color Emoji, Segoe UI Emoji;
  font-size: 14px;
  line-height: 21px;
}
#background {
  width: calc(100% - 10px);
  height: calc(100% - 10px);
  fill: #00000000;
  stroke: #8B8B8B22;
  stroke-width: 1px;
  rx: 6px;
  ry: 6px;
}
foreignObject {
  width: calc(100% - 42px);
}
.octicon {
  margin-right: 1ch;
  vertical-align: top;
}
</style>
<rect x="5" y="5" id="background" />
<foreignObject x="21" y="17" width="318" height="176">
<style>
foreignObject { height: calc(100% - 34px); }
h2 {
  margin: 0 0 0.75em;
  line-height: 24px;
  font-size: 16px;
  font-weight: 600;
  color: #ffffff;
}
ul {
  list-style: none;
  padding-left: 0;
  margin: 0;
}
li {
  display: inline-flex;
  font-size: 12px;
  margin-right: 2ch;
  align-items: center;
  flex-wrap: nowrap;
}
div.ellipsis {
  height: 100%;
  overflow: hidden;
  text-overflow: ellipsis;
}
.progress {
  display: flex;
  height: 8px;
  overflow: hidden;
  background-color: #00000000;
  border-radius: 6px;
  outline: 1px solid transparent;
  margin-bottom: 1em;
}
.lang {
  font-weight: 600;
  margin-right: 4px;
  color: rgb(135, 135, 135);
}
.percent { color: rgb(150,150,150); }
</style>
<div xmlns="http://www.w3.org/1999/xhtml" class="ellipsis">
<h2>Most Used Languages</h2>
<div><span class="progress"><span style="background-color:#7e7eff;width:52.049%;margin-right:0.520%"></span><span style="background-color:#000080;width:15.946%;margin-right:0.159%"></span><span style="background-color:#f1e05a;width:9.613%;margin-right:0.096%"></span><span style="background-color:#663399;width:8.710%;margin-right:0.087%"></span><span style="background-color:#3572A5;width:4.402%;margin-right:0.044%"></span><span style="background-color:#dea584;width:4.292%;margin-right:0.043%"></span><span style="background-color:#3178c6;width:1.875%;margin-right:0.019%"></span><span style="background-color:#89e051;width:1.612%;margin-right:0.016%"></span><span style="background-color:#e34c26;width:1.502%;margin-right:0.015%"></span></span></div>
<ul>
<li>
<svg xmlns="http://www.w3.org/2000/svg" class="octicon" style="fill:#7e7eff" viewBox="0 0 16 16" width="16" height="16"><path fill-rule="evenodd" d="M8 4a4 4 0 100 8 4 4 0 000-8z"></path></svg>
<span class="lang">Nix</span>
<span class="percent">52.05%</span>
</li>
<li>
<svg xmlns="http://www.w3.org/2000/svg" class="octicon" style="fill:#000080" viewBox="0 0 16 16" width="16" height="16"><path fill-rule="evenodd" d="M8 4a4 4 0 100 8 4 4 0 000-8z"></path></svg>
<span class="lang">Lua</span>
<span class="percent">15.95%</span>
</li>
<li>
<svg xmlns="http://www.w3.org/2000/svg" class="octicon" style="fill:#f1e05a" viewBox="0 0 16 16" width="16" height="16"><path fill-rule="evenodd" d="M8 4a4 4 0 100 8 4 4 0 000-8z"></path></svg>
<span class="lang">JavaScript</span>
<span class="percent">9.61%</span>
</li>
<li>
<svg xmlns="http://www.w3.org/2000/svg" class="octicon" style="fill:#663399" viewBox="0 0 16 16" width="16" height="16"><path fill-rule="evenodd" d="M8 4a4 4 0 100 8 4 4 0 000-8z"></path></svg>
<span class="lang">CSS</span>
<span class="percent">8.71%</span>
</li>
<li>
<svg xmlns="http://www.w3.org/2000/svg" class="octicon" style="fill:#3572A5" viewBox="0 0 16 16" width="16" height="16"><path fill-rule="evenodd" d="M8 4a4 4 0 100 8 4 4 0 000-8z"></path></svg>
<span class="lang">Python</span>
<span class="percent">4.40%</span>
</li>
<li>
<svg xmlns="http://www.w3.org/2000/svg" class="octicon" style="fill:#dea584" viewBox="0 0 16 16" width="16" height="16"><path fill-rule="evenodd" d="M8 4a4 4 0 100 8 4 4 0 000-8z"></path></svg>
<span class="lang">Rust</span>
<span class="percent">4.29%</span>
</li>
<li>
<svg xmlns="http://www.w3.org/2000/svg" class="octicon" style="fill:#3178c6" viewBox="0 0 16 16" width="16" height="16"><path fill-rule="evenodd" d="M8 4a4 4 0 100 8 4 4 0 000-8z"></path></svg>
<span class="lang">TypeScript</span>
<span class="percent">1.87%</span>
</li>
<li>
<svg xmlns="http://www.w3.org/2000/svg" class="octicon" style="fill:#89e051" viewBox="0 0 16 16" width="16" height="16"><path fill-rule="evenodd" d="M8 4a4 4 0 100 8 4 4 0 000-8z"></path></svg>
<span class="lang">Shell</span>
<span class="percent">1.61%</span>
</li>
<li>
<svg xmlns="http://www.w3.org/2000/svg" class="octicon" style="fill:#e34c26" viewBox="0 0 16 16" width="16" height="16"><path fill-rule="evenodd" d="M8 4a4 4 0 100 8 4 4 0 000-8z"></path></svg>
<span class="lang">HTML</span>
<span class="percent">1.50%</span>
</li>
</ul>
</div>
</foreignObject>
</svg>